<?xml version="1.0" standalone="no"?>
<!DOCTYPE svg PUBLIC "-//W3C//DTD SVG 20010904//EN"
 "http://www.w3.org/TR/2001/REC-SVG-20010904/DTD/svg10.dtd">
<svg version="1.0" xmlns="http://www.w3.org/2000/svg"
 width="1280.000000pt" height="1044.000000pt" viewBox="0 0 1280.000000 1044.000000"
 preserveAspectRatio="xMidYMid meet">
<metadata>
Created by potrace 1.15, written by Peter Selinger 2001-2017
</metadata>
<g transform="translate(0.000000,1044.000000) scale(0.100000,-0.100000)"
fill="#000000" stroke="none">
<path d="M9913 10425 c-12 -8 -38 -42 -58 -75 -20 -32 -50 -68 -68 -78 -69
-42 -338 -122 -422 -125 -32 -1 -57 9 -125 50 -81 49 -85 51 -93 31 -12 -32
-11 -103 3 -233 13 -118 9 -188 -11 -200 -12 -8 -63 103 -121 261 -78 215 -50
93 41 -182 76 -224 109 -307 200 -494 61 -124 113 -243 117 -265 4 -22 17 -61
30 -87 36 -72 51 -207 24 -223 -5 -3 -14 12 -20 32 -7 21 -57 124 -111 230
-80 155 -114 234 -174 410 -81 240 -148 407 -158 396 -24 -23 10 -196 73 -376
52 -152 101 -249 182 -362 36 -49 72 -112 82 -140 9 -27 36 -83 61 -124 24
-40 47 -87 51 -105 3 -17 45 -112 91 -211 47 -99 132 -295 189 -435 187 -464
313 -765 314 -750 0 20 -48 168 -154 472 -47 137 -104 312 -126 390 -23 79
-43 148 -45 155 -2 7 0 15 4 18 5 2 25 -29 45 -70 19 -42 70 -137 112 -212
106 -191 137 -273 205 -558 34 -137 68 -270 76 -295 12 -33 40 -69 102 -130
l86 -86 -6 -119 c-19 -385 -31 -1190 -22 -1478 9 -297 10 -308 31 -323 28 -19
42 -73 42 -164 0 -95 14 -124 60 -128 19 -2 38 -9 42 -15 5 -8 38 -12 90 -12
76 0 83 -2 94 -23 l11 -23 17 25 c9 14 16 29 16 34 0 4 6 16 13 26 13 17 15
17 45 2 56 -29 90 -80 144 -216 l10 -25 12 35 c7 19 22 40 34 46 71 35 95 88
125 273 13 78 27 145 32 149 9 9 36 -30 55 -82 9 -23 23 -42 33 -44 16 -3 17
56 18 1005 l0 1008 42 30 c23 17 58 55 78 85 20 31 103 222 188 435 140 353
197 473 228 483 8 2 21 -16 33 -43 12 -27 25 -45 33 -43 26 9 75 102 249 470
308 656 356 751 540 1073 25 44 77 139 115 211 l69 132 -44 5 c-49 5 -68 19
-77 59 -6 22 -1 33 24 59 25 25 29 34 20 45 -19 23 -56 16 -141 -26 -91 -45
-97 -46 -138 -25 -34 18 -89 94 -82 114 2 8 0 11 -6 8 -5 -4 -36 2 -67 13 -84
29 -107 26 -144 -15 -43 -49 -178 -280 -376 -642 -93 -171 -171 -310 -172
-309 -1 1 40 101 91 223 236 555 354 883 317 883 -44 0 -401 -593 -977 -1622
-106 -191 -154 -268 -166 -268 -10 0 -18 -7 -18 -15 0 -8 4 -15 9 -15 5 0 -14
-42 -42 -92 l-52 -92 -15 91 c-14 83 -29 128 -31 92 -1 -19 -28 41 -29 65 0
10 12 32 26 49 31 36 29 61 -19 216 -30 100 -33 105 -92 156 -33 30 -71 62
-85 73 l-25 21 31 33 c27 29 30 37 23 68 -5 21 -4 37 3 41 14 9 -40 92 -154
237 -111 141 -185 251 -215 317 -17 38 -31 120 -58 327 -19 153 -35 284 -35
292 0 7 -11 17 -25 20 -41 10 -63 45 -81 125 -9 42 -19 79 -23 83 -4 4 -16 1
-28 -7z"/>
<path d="M7838 10172 l-66 -26 -7 -73 -7 -72 -59 29 c-51 26 -69 30 -144 30
-95 0 -139 -15 -151 -52 l-7 -23 -8 23 -8 22 -51 -20 c-62 -24 -78 -25 -102
-3 -24 22 -31 13 -53 -76 -19 -78 -29 -91 -64 -91 l-27 0 7 -77 c7 -74 16
-109 39 -143 5 -8 23 -134 40 -280 16 -146 45 -386 64 -535 82 -633 105 -882
113 -1227 8 -333 -22 -716 -73 -951 -9 -39 -20 -144 -24 -232 -9 -171 -25
-244 -66 -304 l-24 -36 -1 120 -2 120 -8 -85 c-4 -47 -12 -107 -19 -135 -14
-62 -51 -144 -57 -128 -2 7 3 70 11 140 29 236 65 586 86 833 11 135 24 263
29 285 21 89 -90 1495 -183 2325 l-24 215 -42 37 c-68 60 -81 52 -100 -63 -21
-125 13 -469 100 -1009 80 -497 97 -661 106 -1020 13 -489 -31 -1056 -122
-1569 -29 -164 -39 -202 -64 -240 -74 -117 -171 -181 -273 -181 -51 0 -71 7
-191 68 -210 108 -366 228 -514 395 -144 161 -283 398 -346 587 -48 144 -66
262 -77 510 -18 378 -7 571 62 1058 83 591 82 589 81 772 -2 209 -18 516 -33
620 -11 80 -40 207 -58 253 l-11 27 -37 -15 c-21 -9 -55 -30 -76 -46 -36 -29
-39 -30 -56 -15 -17 16 -19 15 -35 -9 -23 -36 -55 -46 -173 -54 -78 -6 -108
-12 -123 -26 -11 -10 -32 -19 -48 -21 -15 -1 -46 -8 -70 -15 -34 -11 -47 -11
-62 -1 -40 24 -100 7 -119 -35 -6 -13 -11 -64 -11 -113 0 -83 -13 -140 -31
-140 -4 0 -23 26 -42 57 l-35 57 -27 -55 c-15 -30 -29 -56 -31 -58 -1 -2 -28
23 -58 55 -52 56 -55 58 -72 42 -16 -16 -17 -25 -5 -120 19 -147 25 -565 12
-780 -7 -101 -27 -361 -46 -578 -61 -713 -67 -930 -30 -1245 33 -280 110 -556
216 -768 31 -61 36 -79 25 -83 -11 -4 -12 -12 -2 -42 l11 -37 5 40 5 40 185
-231 c128 -159 202 -243 239 -270 139 -100 273 -189 355 -236 86 -50 94 -52
330 -99 132 -26 302 -57 376 -69 74 -12 162 -33 194 -47 232 -97 508 -63 821
102 229 120 313 137 421 86 l62 -29 48 33 c67 45 125 102 172 171 70 105 75
116 212 504 34 96 75 204 91 240 26 56 32 86 44 230 21 238 43 561 56 825 12
243 6 782 -11 955 -5 52 -14 206 -19 342 -11 265 -27 448 -65 738 -97 738
-121 904 -134 916 -20 20 -58 16 -134 -14z"/>
<path d="M1640 10138 c90 -16 104 -27 35 -28 -121 -1 -409 -40 -559 -75 -51
-12 -62 -12 -91 2 -39 19 -94 11 -119 -16 -10 -11 -23 -55 -31 -102 -15 -92
-32 -149 -45 -149 -5 0 -16 35 -25 79 -10 43 -21 84 -25 91 -9 15 -78 -12 -86
-35 -6 -14 -11 -12 -35 11 l-29 28 0 -115 c0 -352 -70 -970 -200 -1766 -158
-965 -197 -1339 -202 -1903 -2 -256 1 -342 16 -459 17 -134 17 -188 0 -287 -5
-29 -4 -31 18 -28 12 2 44 6 70 9 44 6 50 10 74 51 36 61 53 124 62 224 l8 85
23 -35 c20 -32 22 -42 16 -127 -5 -75 -3 -99 11 -128 14 -30 21 -35 50 -35 22
0 38 -7 48 -22 9 -12 18 -19 22 -16 3 4 37 -4 75 -17 113 -39 346 -103 469
-129 235 -51 331 -61 575 -60 212 0 240 2 355 27 189 40 339 100 483 193 76
49 77 50 77 30 0 -30 -204 -148 -350 -203 -172 -66 -457 -134 -675 -163 -88
-12 -96 -11 -398 39 -326 55 -502 98 -627 156 l-75 35 53 -50 c29 -27 51 -54
47 -59 -7 -12 115 -51 315 -101 508 -125 862 -129 1206 -15 89 29 135 55 370
206 338 216 431 279 519 347 91 72 265 247 265 267 0 34 33 75 109 139 44 36
85 76 92 88 12 22 14 22 -36 2 -33 -13 -6 34 59 104 27 29 28 32 9 32 -36 0
-35 42 2 218 9 46 15 98 12 115 -9 61 24 94 124 126 20 6 46 23 59 36 23 24
23 25 5 72 -31 82 -91 195 -143 269 -72 102 -145 178 -311 323 -271 236 -273
238 -338 251 -32 7 -73 21 -91 32 -29 18 -33 25 -28 50 10 50 53 94 162 164
57 37 104 72 104 77 0 4 -6 5 -12 0 -89 -55 -126 -73 -150 -73 -44 0 -34 23
32 82 35 31 58 58 55 66 -3 8 18 47 46 88 41 59 53 85 57 124 2 28 1 50 -3 50
-4 0 -23 -10 -42 -21 -19 -12 -37 -19 -40 -16 -3 3 -8 25 -10 49 -4 35 -1 47
16 62 12 11 21 30 21 43 0 53 46 106 156 182 61 42 104 100 104 140 0 11 5 21
10 21 6 0 10 11 10 25 0 18 5 25 20 25 25 0 28 45 4 78 -14 21 -14 23 10 34
15 6 26 15 26 20 0 5 -23 57 -50 115 -89 189 -223 370 -345 466 -27 21 -106
92 -175 156 -136 128 -169 152 -305 219 -240 119 -451 175 -775 207 -161 16
-224 17 -140 3z m-215 -117 c3 -5 1 -12 -5 -16 -5 -3 -10 1 -10 9 0 18 6 21
15 7z m-495 -101 c0 -5 -4 -10 -10 -10 -5 0 -10 5 -10 10 0 6 5 10 10 10 6 0
10 -4 10 -10z m482 -573 c3 -53 2 -57 -19 -57 -21 0 -22 3 -17 53 3 28 8 58
10 66 9 28 22 -4 26 -62z m294 33 c447 -59 541 -92 705 -245 47 -44 102 -94
122 -112 25 -21 37 -40 37 -58 0 -24 -2 -25 -19 -13 -11 8 -58 55 -106 106
-62 66 -96 94 -122 101 -20 6 -40 8 -44 5 -5 -3 -93 11 -196 30 -103 19 -258
47 -343 61 -222 36 -200 26 -200 90 0 30 4 55 9 55 4 0 75 -9 157 -20z m-881
-79 c-3 -13 -12 -38 -20 -55 -13 -30 -13 -30 -14 35 -1 36 2 69 6 73 13 13 34
-28 28 -53z m564 -70 c11 -7 11 -27 -3 -127 -9 -66 -27 -209 -41 -319 -26
-203 -61 -375 -95 -462 -11 -26 -19 -45 -20 -41 0 4 11 76 25 160 27 169 68
486 86 676 12 121 17 133 48 113z m296 -22 c201 -27 437 -94 579 -166 147 -74
278 -182 352 -289 22 -32 45 -54 56 -54 11 0 18 -7 18 -19 0 -11 19 -55 41
-99 23 -44 39 -84 35 -90 -3 -5 -27 -13 -53 -16 -100 -14 -218 -40 -508 -111
-363 -90 -497 -114 -677 -122 l-138 -6 0 39 c0 49 20 170 65 397 41 211 65
383 65 476 0 37 3 71 7 74 3 4 22 5 42 2 20 -3 72 -10 116 -16z m-875 -55 c0
-3 -18 -112 -40 -242 -103 -620 -191 -1238 -239 -1697 -50 -472 -55 -567 -56
-1002 0 -326 -3 -420 -12 -410 -19 19 -36 394 -29 607 17 472 50 759 196 1720
39 256 87 578 106 715 46 333 43 315 59 315 8 0 15 -3 15 -6z m360 -1249 c0
-8 -4 -15 -10 -15 -5 0 -10 7 -10 15 0 8 5 15 10 15 6 0 10 -7 10 -15z m520
-15 c0 -5 -7 -10 -16 -10 -8 0 -12 5 -9 10 3 6 10 10 16 10 5 0 9 -4 9 -10z
m1145 -52 c-20 -24 -46 -51 -57 -60 -21 -19 -68 -25 -68 -9 0 7 148 111 159
111 2 0 -13 -19 -34 -42z m-1475 28 c0 -2 -9 -6 -20 -9 -11 -3 -20 -1 -20 4 0
5 9 9 20 9 11 0 20 -2 20 -4z m1530 -597 c28 -12 49 -23 47 -25 -5 -5 -148 44
-156 52 -11 12 58 -5 109 -27z m-380 -239 c119 -23 237 -67 315 -120 73 -48
139 -105 110 -94 -11 4 -60 22 -108 41 -397 153 -984 181 -1516 72 -51 -10
-95 -19 -97 -19 -3 0 0 9 7 21 23 44 84 58 336 79 335 27 489 40 553 44 102 7
304 -5 400 -24z m-325 -110 c221 -21 432 -78 599 -162 130 -66 151 -83 211
-179 30 -49 55 -91 55 -94 0 -2 -42 -33 -92 -67 -675 -458 -1201 -589 -1690
-421 l-78 26 0 413 0 413 33 5 c162 27 231 37 352 50 77 9 158 17 180 19 92 8
328 6 430 -3z m-1138 -352 c-2 -138 -9 -247 -16 -268 -9 -28 -8 -47 5 -101 27
-104 2 -180 -34 -105 -10 20 -11 47 -4 114 10 98 1 156 -29 189 -17 17 -19 25
-10 41 6 12 11 33 11 47 0 22 3 25 20 20 11 -3 20 -2 20 3 0 6 -5 12 -12 14
-9 3 -8 30 1 114 16 148 20 164 38 164 13 0 15 -29 10 -232z m1804 -1022 c-13
-14 -37 -30 -54 -36 -36 -12 -29 -4 28 34 49 32 55 33 26 2z m-111 -71 c-13
-14 -30 -25 -39 -25 -9 0 0 11 19 25 45 31 49 31 20 0z m-310 -110 c-25 -13
-49 -24 -55 -24 -5 0 10 11 35 24 25 13 50 24 55 24 6 0 -10 -11 -35 -24z
m-370 -95 c0 -5 -4 -10 -10 -10 -5 0 -10 5 -10 10 0 6 5 10 10 10 6 0 10 -4
10 -10z m-1356 -81 c-3 -5 -10 -7 -15 -3 -5 3 -7 10 -3 15 3 5 10 7 15 3 5 -3
7 -10 3 -15z m326 -59 c0 -5 -4 -10 -10 -10 -5 0 -10 5 -10 10 0 6 5 10 10 10
6 0 10 -4 10 -10z"/>
<path d="M1878 6663 c6 -2 18 -2 25 0 6 3 1 5 -13 5 -14 0 -19 -2 -12 -5z"/>
<path d="M1567 6593 c-95 -36 -78 -39 24 -4 46 16 75 29 64 29 -11 0 -50 -11
-88 -25z"/>
<path d="M885 10090 c-4 -6 6 -7 27 -3 44 8 48 13 10 13 -17 0 -34 -4 -37 -10z"/>
<path d="M5842 9827 c-50 -155 -35 -373 39 -544 l18 -42 -26 -19 -26 -19 24
-32 c21 -29 24 -43 23 -118 -1 -139 17 -58 23 102 4 109 0 179 -17 315 -12 96
-25 231 -29 300 l-7 125 -22 -68z"/>
<path d="M4319 8970 c-18 -22 -44 -43 -57 -47 l-25 -6 8 -126 c4 -69 8 -128
10 -129 2 -2 15 4 29 15 19 14 23 23 18 43 -14 51 -4 116 31 203 19 48 31 87
27 87 -5 0 -24 -18 -41 -40z"/>
<path d="M7222 7010 c0 -14 2 -19 5 -12 2 6 2 18 0 25 -3 6 -5 1 -5 -13z"/>
<path d="M7210 6820 c0 -22 5 -40 10 -40 6 0 10 18 10 40 0 22 -4 40 -10 40
-5 0 -10 -18 -10 -40z"/>
<path d="M7203 6665 c0 -27 2 -38 4 -22 2 15 2 37 0 50 -2 12 -4 0 -4 -28z"/>
<path d="M7180 6500 c0 -33 4 -60 10 -60 6 0 10 27 10 60 0 33 -4 60 -10 60
-6 0 -10 -27 -10 -60z"/>
<path d="M502 5240 c27 -21 78 -43 85 -37 7 7 -73 57 -91 57 -16 0 -15 -3 6
-20z"/>
<path d="M1250 5174 c0 -8 5 -12 10 -9 6 3 10 10 10 16 0 5 -4 9 -10 9 -5 0
-10 -7 -10 -16z"/>
<path d="M1510 5130 c0 -5 5 -10 10 -10 6 0 10 5 10 10 0 6 -4 10 -10 10 -5 0
-10 -4 -10 -10z"/>
<path d="M5230 5086 c0 -11 147 -101 223 -136 156 -74 376 -115 534 -100 52 5
45 6 -57 13 -63 4 -140 14 -170 23 -30 8 -82 19 -115 25 -89 14 -133 31 -276
109 -129 69 -139 74 -139 66z"/>
<path d="M1180 4910 c0 -5 7 -10 16 -10 8 0 12 5 9 10 -3 6 -10 10 -16 10 -5
0 -9 -4 -9 -10z"/>
<path d="M12721 4391 c-57 -20 -68 -30 -77 -73 -5 -23 -9 -25 -33 -18 -15 4
-41 15 -59 24 -42 22 -79 20 -94 -3 -9 -14 -19 -18 -38 -14 -24 4 -29 0 -48
-46 -11 -28 -27 -51 -35 -51 -8 0 -35 11 -61 25 -65 34 -92 33 -116 -7 -48
-79 -97 -249 -135 -473 -49 -285 -67 -369 -100 -454 -92 -243 -174 -599 -250
-1094 l-28 -179 -38 39 -38 38 20 115 c28 165 80 391 149 650 179 673 208 803
236 1065 l15 139 -31 30 c-19 20 -33 27 -39 21 -37 -37 -96 -269 -106 -420 -5
-67 -34 -194 -110 -490 -112 -430 -142 -558 -174 -730 -29 -154 -52 -245 -61
-245 -12 0 -98 118 -170 233 -74 118 -173 314 -234 463 -36 91 -295 825 -337
959 -6 22 -36 82 -65 134 -53 94 -80 175 -71 211 4 17 0 20 -24 20 -22 0 -34
9 -55 40 -15 22 -30 40 -35 40 -5 0 -16 -11 -25 -25 -13 -20 -25 -25 -56 -25
-41 0 -51 -7 -125 -94 l-31 -37 -37 16 c-28 11 -41 12 -51 4 -8 -6 -25 -8 -39
-5 -22 6 -25 3 -25 -21 0 -43 -13 -57 -38 -44 -14 7 -23 8 -27 1 -3 -5 -28
-10 -54 -10 -61 0 -71 -11 -114 -125 -39 -101 -62 -118 -62 -45 0 42 -1 44
-35 51 -49 11 -76 -10 -95 -73 -8 -28 -15 -61 -15 -72 0 -12 -21 -66 -46 -121
-130 -283 -179 -407 -303 -770 -149 -433 -290 -812 -330 -882 -8 -14 -9 -14
-14 3 -24 75 -42 234 -88 747 -21 240 -43 410 -34 262 4 -63 42 -522 80 -955
l14 -165 -36 -65 -37 -65 -8 35 c-18 86 -46 406 -68 780 -45 767 -115 1114
-288 1443 -52 97 -66 105 -128 66 -25 -15 -38 -18 -52 -10 -16 8 -21 5 -36
-25 -16 -34 -16 -37 4 -64 11 -16 29 -48 40 -72 18 -42 62 -188 56 -188 -2 0
-48 64 -102 142 -123 177 -114 166 -121 151 -2 -7 -20 -13 -39 -13 -45 0 -69
-35 -61 -90 l5 -40 -25 19 c-13 11 -49 25 -80 31 -52 11 -56 10 -80 -12 -42
-39 -65 -95 -65 -159 0 -64 16 -119 72 -254 21 -49 45 -112 54 -140 23 -72
150 -1471 186 -2055 12 -192 27 -563 24 -569 -3 -4 -29 57 -48 113 -23 67 -45
283 -56 551 -16 390 -30 611 -45 725 -15 110 -34 314 -60 640 -19 240 -30 341
-49 450 -21 116 -62 274 -85 318 -10 20 -30 72 -46 114 -15 43 -39 90 -54 105
l-25 28 -11 -68 c-10 -65 -11 -67 -27 -50 -29 28 -22 2 41 -149 101 -245 108
-272 136 -569 53 -563 121 -1441 170 -2219 15 -222 27 -406 29 -407 1 -2 17
17 34 42 45 64 57 60 73 -23 8 -44 8 -42 4 16 -4 53 -2 68 15 89 15 19 20 41
20 82 0 31 4 62 9 70 9 14 18 -19 37 -134 12 -70 34 -115 61 -121 32 -8 88 8
88 26 0 23 83 60 134 60 59 0 136 -36 195 -90 l45 -41 20 65 c11 37 28 103 37
149 19 93 35 132 64 147 26 14 43 4 108 -64 81 -87 110 -73 97 49 -4 36 -4 76
-1 91 l7 27 24 -23 c14 -13 41 -56 61 -96 42 -86 57 -102 79 -84 18 15 41 92
50 169 9 71 33 95 86 86 33 -6 40 -4 45 12 3 10 19 52 36 93 17 41 41 102 53
136 12 34 36 81 52 105 80 117 174 299 420 814 107 225 123 265 118 295 -5 29
1 46 31 95 20 33 42 73 49 88 l12 28 23 -63 c35 -98 142 -306 221 -431 102
-162 180 -268 463 -635 138 -180 287 -376 331 -437 44 -60 98 -126 119 -147
l40 -37 6 -133 c6 -129 20 -184 50 -203 6 -4 8 -20 5 -38 -6 -29 -3 -33 26
-44 18 -7 35 -10 38 -7 5 5 11 257 11 471 0 45 4 55 26 69 16 11 28 14 35 7
15 -15 22 -171 11 -233 -9 -49 -8 -57 9 -76 15 -16 18 -30 14 -60 -8 -51 16
-119 57 -161 36 -37 44 -39 84 -18 28 14 30 14 76 -32 26 -26 49 -45 51 -42 3
2 10 14 16 27 7 13 22 27 35 32 20 7 24 19 36 111 l13 103 23 -30 c36 -44 54
-109 54 -191 0 -81 6 -86 61 -57 16 8 38 12 48 9 16 -5 20 9 37 127 24 169 39
175 132 53 l22 -30 -5 200 c-3 110 -10 331 -15 490 -15 456 -14 562 9 591 14
18 20 49 25 126 20 284 74 599 137 795 46 141 130 497 188 793 66 339 97 576
107 818 8 172 13 163 -75 133z"/>
<path d="M3091 4314 c-21 -15 -23 -21 -16 -80 3 -35 3 -73 0 -85 -7 -20 -9
-19 -44 15 -21 20 -40 33 -44 29 -4 -3 -20 5 -35 20 -20 19 -31 24 -42 17 -8
-5 -27 -10 -42 -10 -24 0 -28 -4 -28 -29 0 -48 -64 -77 -109 -49 -16 10 -24 7
-51 -15 l-32 -27 -25 20 c-14 11 -37 20 -51 20 -22 0 -24 -3 -17 -27 11 -44
17 -524 7 -568 l-9 -40 -21 70 c-11 39 -32 134 -46 212 -14 79 -34 167 -44
195 -17 49 -21 53 -48 50 -16 -2 -30 -5 -32 -7 -2 -2 4 -55 13 -117 31 -197
31 -531 1 -988 -14 -218 -26 -435 -26 -483 0 -48 -3 -87 -8 -87 -4 0 -60 71
-124 158 -65 86 -158 198 -209 247 -158 157 -286 337 -489 690 -124 218 -226
373 -312 480 -78 96 -242 253 -273 261 -13 3 -40 -3 -63 -15 -23 -12 -53 -21
-67 -21 -51 0 -155 -66 -155 -99 0 -12 -13 -17 -57 -18 -31 -2 -63 2 -70 9
-20 16 -42 -9 -62 -69 -9 -26 -20 -48 -26 -48 -5 0 -17 14 -25 32 -13 26 -23
33 -69 42 -67 14 -98 14 -106 1 -17 -28 -22 -116 -9 -169 18 -76 18 -130 -1
-137 -12 -5 -9 -12 13 -33 23 -20 30 -38 36 -85 3 -32 10 -66 15 -75 5 -9 14
-333 20 -721 17 -1074 35 -1507 81 -1957 32 -315 50 -426 70 -443 27 -23 39
-53 46 -116 9 -81 27 -114 62 -114 16 0 33 -5 39 -11 8 -8 17 -8 31 0 36 19
99 14 115 -10 14 -20 15 -19 32 25 10 25 20 46 24 46 3 0 24 -10 45 -23 29
-16 50 -42 80 -95 40 -73 41 -73 51 -45 5 15 24 42 42 59 39 39 50 79 59 222
4 61 10 112 14 112 11 0 36 -32 51 -64 8 -16 20 -32 28 -34 11 -4 13 11 7 89
-12 159 -35 369 -81 744 -54 441 -71 611 -85 875 -14 238 -6 463 16 481 8 7
16 10 17 8 100 -131 266 -325 333 -389 70 -66 103 -109 154 -195 37 -62 90
-135 124 -170 33 -33 67 -71 75 -85 9 -14 41 -64 72 -110 31 -47 94 -155 139
-240 96 -182 155 -272 354 -538 54 -74 119 -173 144 -220 36 -70 48 -86 64
-84 53 9 118 -53 149 -143 l14 -40 3 40 c2 22 -4 74 -13 116 -11 51 -13 83 -7
100 l10 24 44 -46 c35 -36 50 -63 70 -125 l25 -79 8 72 7 71 45 11 c29 8 46
19 51 32 7 19 11 17 36 -21 22 -34 32 -41 54 -38 23 3 28 10 37 49 l10 46 53
-24 c28 -12 52 -27 52 -33 0 -6 11 -15 24 -21 13 -6 30 -25 39 -42 l16 -32 0
57 c1 45 5 60 20 69 16 11 18 23 13 124 -6 134 6 153 43 73 l25 -53 0 40 0 40
47 -77 c26 -42 48 -76 50 -75 4 5 -18 290 -33 407 -8 69 -29 206 -45 305 -51
316 -63 454 -62 765 0 157 8 426 19 600 40 681 22 1086 -67 1445 -26 107 -38
135 -67 168 -29 31 -57 34 -91 11z"/>
<path d="M5802 4268 c-37 -11 -96 -24 -132 -29 -36 -6 -124 -30 -196 -55 -138
-46 -225 -57 -278 -33 -22 11 -42 1 -218 -106 -239 -146 -348 -219 -428 -286
-58 -48 -61 -53 -42 -63 19 -10 17 -15 -44 -91 -106 -130 -222 -311 -290 -450
-111 -226 -145 -360 -149 -580 -1 -114 -7 -160 -28 -244 -15 -57 -27 -107 -28
-110 -3 -23 -30 113 -40 199 -32 291 52 595 248 898 49 76 82 121 204 277 17
22 -4 4 -46 -40 -150 -156 -287 -357 -368 -538 -47 -105 -48 -106 -54 -89 -10
27 -23 9 -23 -32 0 -36 -6 -50 -31 -76 l-32 -31 6 -232 c10 -415 80 -760 270
-1326 52 -158 73 -208 77 -190 5 20 17 5 76 -101 144 -255 148 -262 135 -270
-9 -5 11 -38 64 -109 42 -55 78 -101 80 -101 3 0 -7 21 -20 46 -33 63 -31 78
5 44 54 -50 140 -101 264 -157 169 -76 323 -157 374 -197 l43 -34 -61 -28
c-33 -15 -59 -29 -57 -31 3 -2 89 4 193 13 181 15 338 13 388 -5 18 -7 15 -10
-19 -21 -64 -20 -59 -26 19 -22 63 4 78 1 103 -17 28 -21 29 -21 88 -4 34 10
99 17 150 18 240 3 588 182 813 419 139 146 231 313 277 501 14 61 62 254 105
430 99 402 125 518 150 664 63 376 66 662 9 944 -16 82 -28 113 -58 157 -111
162 -565 799 -630 884 -41 54 -89 107 -106 118 -90 55 -305 95 -543 101 -126
2 -165 0 -220 -15z m-95 -538 c22 0 180 -156 268 -265 144 -178 486 -666 501
-714 46 -157 62 -428 36 -631 -19 -142 -66 -365 -118 -550 -25 -91 -68 -248
-95 -349 -50 -187 -86 -268 -182 -409 -36 -54 -101 -102 -137 -102 -18 0 -74
31 -161 89 -429 288 -734 619 -859 933 -61 155 -72 215 -77 440 -5 202 -4 211
23 333 28 120 44 156 44 97 0 -16 9 -57 21 -92 22 -67 80 -202 85 -198 1 2 -4
30 -12 63 -39 164 -34 412 11 585 43 163 169 388 269 479 21 20 26 34 27 75 1
68 10 89 40 90 31 2 114 64 127 96 9 23 10 22 11 -14 l1 -39 33 37 c31 36 84
59 115 50 8 -2 21 -4 29 -4z m-1578 -1922 c72 -351 111 -501 156 -605 22 -51
23 -55 5 -33 -34 41 -107 198 -140 300 -56 172 -94 396 -104 625 -7 147 -6
146 83 -287z"/>
<path d="M5140 1815 c-7 -20 -10 -69 -8 -108 4 -82 34 -153 95 -228 38 -45
257 -249 268 -249 4 0 -17 26 -45 58 -76 86 -166 210 -201 275 -17 32 -44 108
-60 170 -16 61 -31 112 -33 114 -2 3 -9 -12 -16 -32z"/>
<path d="M20 3885 c-7 -9 -5 -16 5 -25 21 -17 19 -40 -4 -40 -17 0 -18 -4 -11
-29 4 -17 14 -81 20 -143 6 -62 22 -144 35 -183 18 -56 25 -110 34 -270 19
-345 21 -380 36 -820 33 -952 51 -1314 85 -1680 25 -264 62 -565 70 -565 4 0
13 11 20 25 7 14 17 25 20 25 12 0 63 -83 77 -125 31 -92 0 326 -67 895 -80
685 -95 893 -86 1235 6 258 6 262 -24 443 -16 100 -30 218 -30 262 0 93 17
183 32 174 22 -14 -7 196 -95 691 l-23 130 -42 6 c-27 3 -46 1 -52 -6z"/>
<path d="M243 2980 c0 -30 2 -43 4 -27 2 15 2 39 0 55 -2 15 -4 2 -4 -28z"/>
<path d="M240 2835 c0 -14 5 -25 10 -25 6 0 10 11 10 25 0 14 -4 25 -10 25 -5
0 -10 -11 -10 -25z"/>
<path d="M4230 908 c0 -17 156 -341 196 -405 25 -40 47 -73 50 -73 2 0 -17 39
-41 88 -25 48 -70 139 -100 202 -50 107 -104 204 -105 188z"/>
<path d="M11502 180 c0 -19 2 -27 5 -17 2 9 2 25 0 35 -3 9 -5 1 -5 -18z"/>
<path d="M4915 120 c-4 -6 -5 -12 -4 -13 2 -1 15 -8 27 -15 33 -18 37 -10 8
17 -16 15 -26 19 -31 11z"/>
</g>
</svg>
